<mxfile host="app.diagrams.net" agent="Mozilla/5.0 (Windows NT 10.0; Win64; x64) AppleWebKit/537.36 (KHTML, like Gecko) Chrome/140.0.0.0 Safari/537.36" version="28.2.3">
  <diagram id="n3W-JXhxs7wC3_vQ-rjQ" name="BTMH-Bài 3">
    <mxGraphModel dx="1729" dy="464" grid="1" gridSize="10" guides="1" tooltips="1" connect="1" arrows="1" fold="1" page="1" pageScale="1" pageWidth="827" pageHeight="1169" math="0" shadow="0">
      <root>
        <mxCell id="0" />
        <mxCell id="1" parent="0" />
        <mxCell id="-MiEWWNqoaxXBs_AFDfk-1" value="Student" style="shape=umlActor;verticalLabelPosition=bottom;verticalAlign=top;html=1;outlineConnect=0;fontSize=14;" parent="1" vertex="1">
          <mxGeometry x="-638" y="212" width="30" height="60" as="geometry" />
        </mxCell>
        <mxCell id="-MiEWWNqoaxXBs_AFDfk-2" value="Professor" style="shape=umlActor;verticalLabelPosition=bottom;verticalAlign=top;html=1;outlineConnect=0;fontSize=14;" parent="1" vertex="1">
          <mxGeometry x="-638" y="372" width="30" height="60" as="geometry" />
        </mxCell>
        <mxCell id="-MiEWWNqoaxXBs_AFDfk-3" value="Registra" style="shape=umlActor;verticalLabelPosition=bottom;verticalAlign=top;html=1;outlineConnect=0;fontSize=14;" parent="1" vertex="1">
          <mxGeometry x="-638" y="512" width="30" height="60" as="geometry" />
        </mxCell>
        <mxCell id="-MiEWWNqoaxXBs_AFDfk-4" value="Billing System" style="shape=umlActor;verticalLabelPosition=bottom;verticalAlign=top;html=1;outlineConnect=0;fontSize=14;" parent="1" vertex="1">
          <mxGeometry x="-198" y="212" width="30" height="60" as="geometry" />
        </mxCell>
        <mxCell id="-MiEWWNqoaxXBs_AFDfk-5" value="Register for Course" style="ellipse;whiteSpace=wrap;html=1;fontSize=14;" parent="1" vertex="1">
          <mxGeometry x="-458" y="252" width="120" height="55" as="geometry" />
        </mxCell>
        <mxCell id="-MiEWWNqoaxXBs_AFDfk-6" value="Select Course to Teach" style="ellipse;whiteSpace=wrap;html=1;fontSize=14;" parent="1" vertex="1">
          <mxGeometry x="-458" y="362" width="120" height="55" as="geometry" />
        </mxCell>
        <mxCell id="-MiEWWNqoaxXBs_AFDfk-7" value="Maintain Student Information" style="ellipse;whiteSpace=wrap;html=1;fontSize=14;" parent="1" vertex="1">
          <mxGeometry x="-458" y="532" width="120" height="55" as="geometry" />
        </mxCell>
        <mxCell id="-MiEWWNqoaxXBs_AFDfk-8" value="Maintain Curriculum" style="ellipse;whiteSpace=wrap;html=1;fontSize=14;" parent="1" vertex="1">
          <mxGeometry x="-458" y="422" width="120" height="85" as="geometry" />
        </mxCell>
        <mxCell id="-MiEWWNqoaxXBs_AFDfk-9" value="Maintain Professo Information" style="ellipse;whiteSpace=wrap;html=1;fontSize=14;" parent="1" vertex="1">
          <mxGeometry x="-458" y="622" width="120" height="55" as="geometry" />
        </mxCell>
        <mxCell id="-MiEWWNqoaxXBs_AFDfk-10" value="Registra Validation" style="ellipse;whiteSpace=wrap;html=1;fontSize=14;" parent="1" vertex="1">
          <mxGeometry x="-218" y="532" width="120" height="55" as="geometry" />
        </mxCell>
        <mxCell id="-MiEWWNqoaxXBs_AFDfk-11" value="" style="endArrow=classic;html=1;rounded=0;entryX=0;entryY=0.5;entryDx=0;entryDy=0;fontSize=14;" parent="1" source="-MiEWWNqoaxXBs_AFDfk-1" target="-MiEWWNqoaxXBs_AFDfk-5" edge="1">
          <mxGeometry width="50" height="50" relative="1" as="geometry">
            <mxPoint x="-548" y="272" as="sourcePoint" />
            <mxPoint x="-498" y="222" as="targetPoint" />
          </mxGeometry>
        </mxCell>
        <mxCell id="-MiEWWNqoaxXBs_AFDfk-12" value="" style="endArrow=classic;html=1;rounded=0;exitX=1;exitY=0.5;exitDx=0;exitDy=0;fontSize=14;" parent="1" source="-MiEWWNqoaxXBs_AFDfk-5" target="-MiEWWNqoaxXBs_AFDfk-4" edge="1">
          <mxGeometry width="50" height="50" relative="1" as="geometry">
            <mxPoint x="-288" y="282" as="sourcePoint" />
            <mxPoint x="-238" y="232" as="targetPoint" />
          </mxGeometry>
        </mxCell>
        <mxCell id="-MiEWWNqoaxXBs_AFDfk-13" value="" style="endArrow=classic;html=1;rounded=0;entryX=0;entryY=0.5;entryDx=0;entryDy=0;fontSize=14;" parent="1" source="-MiEWWNqoaxXBs_AFDfk-2" target="-MiEWWNqoaxXBs_AFDfk-6" edge="1">
          <mxGeometry width="50" height="50" relative="1" as="geometry">
            <mxPoint x="-518" y="422" as="sourcePoint" />
            <mxPoint x="-468" y="372" as="targetPoint" />
          </mxGeometry>
        </mxCell>
        <mxCell id="-MiEWWNqoaxXBs_AFDfk-14" value="" style="endArrow=classic;html=1;rounded=0;entryX=0;entryY=0.5;entryDx=0;entryDy=0;fontSize=14;" parent="1" target="-MiEWWNqoaxXBs_AFDfk-8" edge="1">
          <mxGeometry width="50" height="50" relative="1" as="geometry">
            <mxPoint x="-598" y="552" as="sourcePoint" />
            <mxPoint x="-518" y="482" as="targetPoint" />
          </mxGeometry>
        </mxCell>
        <mxCell id="-MiEWWNqoaxXBs_AFDfk-15" value="" style="endArrow=classic;html=1;rounded=0;entryX=0;entryY=0.5;entryDx=0;entryDy=0;fontSize=14;" parent="1" target="-MiEWWNqoaxXBs_AFDfk-7" edge="1">
          <mxGeometry width="50" height="50" relative="1" as="geometry">
            <mxPoint x="-598" y="552" as="sourcePoint" />
            <mxPoint x="-478" y="512" as="targetPoint" />
          </mxGeometry>
        </mxCell>
        <mxCell id="-MiEWWNqoaxXBs_AFDfk-16" value="" style="endArrow=classic;html=1;rounded=0;entryX=0;entryY=0.5;entryDx=0;entryDy=0;fontSize=14;" parent="1" target="-MiEWWNqoaxXBs_AFDfk-9" edge="1">
          <mxGeometry width="50" height="50" relative="1" as="geometry">
            <mxPoint x="-598" y="552" as="sourcePoint" />
            <mxPoint x="-478" y="632" as="targetPoint" />
          </mxGeometry>
        </mxCell>
        <mxCell id="-MiEWWNqoaxXBs_AFDfk-17" value="" style="endArrow=block;html=1;rounded=0;endFill=0;exitX=1;exitY=0.5;exitDx=0;exitDy=0;entryX=0;entryY=0;entryDx=0;entryDy=0;fontSize=14;" parent="1" source="-MiEWWNqoaxXBs_AFDfk-8" target="-MiEWWNqoaxXBs_AFDfk-10" edge="1">
          <mxGeometry width="50" height="50" relative="1" as="geometry">
            <mxPoint x="-294" y="442" as="sourcePoint" />
            <mxPoint x="-244" y="392" as="targetPoint" />
          </mxGeometry>
        </mxCell>
        <mxCell id="-MiEWWNqoaxXBs_AFDfk-18" value="" style="endArrow=block;html=1;rounded=0;endFill=0;exitX=1;exitY=0.5;exitDx=0;exitDy=0;entryX=0;entryY=1;entryDx=0;entryDy=0;fontSize=14;" parent="1" source="-MiEWWNqoaxXBs_AFDfk-9" target="-MiEWWNqoaxXBs_AFDfk-10" edge="1">
          <mxGeometry width="50" height="50" relative="1" as="geometry">
            <mxPoint x="-248" y="562" as="sourcePoint" />
            <mxPoint x="-121" y="602" as="targetPoint" />
          </mxGeometry>
        </mxCell>
        <mxCell id="-MiEWWNqoaxXBs_AFDfk-19" value="" style="endArrow=block;html=1;rounded=0;endFill=0;exitX=1;exitY=0.5;exitDx=0;exitDy=0;fontSize=14;" parent="1" source="-MiEWWNqoaxXBs_AFDfk-7" target="-MiEWWNqoaxXBs_AFDfk-10" edge="1">
          <mxGeometry width="50" height="50" relative="1" as="geometry">
            <mxPoint x="-248" y="562" as="sourcePoint" />
            <mxPoint x="-121" y="602" as="targetPoint" />
          </mxGeometry>
        </mxCell>
        <mxCell id="-MiEWWNqoaxXBs_AFDfk-20" value="&amp;lt;&amp;lt;user&amp;gt;&amp;gt;" style="text;html=1;align=center;verticalAlign=middle;resizable=0;points=[];autosize=1;strokeColor=none;fillColor=none;fontSize=14;" parent="1" vertex="1">
          <mxGeometry x="-308" y="480" width="80" height="30" as="geometry" />
        </mxCell>
        <mxCell id="-MiEWWNqoaxXBs_AFDfk-21" value="&amp;lt;&amp;lt;user&amp;gt;&amp;gt;" style="text;html=1;align=center;verticalAlign=middle;resizable=0;points=[];autosize=1;strokeColor=none;fillColor=none;fontSize=14;" parent="1" vertex="1">
          <mxGeometry x="-334" y="592" width="80" height="30" as="geometry" />
        </mxCell>
        <mxCell id="-MiEWWNqoaxXBs_AFDfk-22" value="&amp;lt;&amp;lt;user&amp;gt;&amp;gt;" style="text;html=1;align=center;verticalAlign=middle;resizable=0;points=[];autosize=1;strokeColor=none;fillColor=none;fontSize=14;" parent="1" vertex="1">
          <mxGeometry x="-323" y="532" width="80" height="30" as="geometry" />
        </mxCell>
        <mxCell id="-MiEWWNqoaxXBs_AFDfk-23" value="Bài 3:" style="text;html=1;align=center;verticalAlign=middle;resizable=0;points=[];autosize=1;strokeColor=none;fillColor=none;fontFamily=Helvetica;fontSize=28;fontColor=#CC0000;labelBackgroundColor=default;fontStyle=1" parent="1" vertex="1">
          <mxGeometry x="-728" y="140" width="100" height="50" as="geometry" />
        </mxCell>
      </root>
    </mxGraphModel>
  </diagram>
</mxfile>
